<?xml version="1.0" encoding="UTF-8" standalone="no"?>
<svg width="32px" height="32px" viewBox="0 0 32 32" version="1.1" xmlns="http://www.w3.org/2000/svg" xmlns:xlink="http://www.w3.org/1999/xlink" xmlns:sketch="http://www.bohemiancoding.com/sketch/ns">
    <!-- Generator: Sketch 3.0.4 (8054) - http://www.bohemiancoding.com/sketch -->
    <title>Shape</title>
    <desc>Created with Sketch.</desc>
    <defs></defs>
    <g id="Page-1" stroke="none" stroke-width="1" fill="none" fill-rule="evenodd" sketch:type="MSPage">
        <g id="Desktop-HD" sketch:type="MSArtboardGroup" transform="translate(-829.000000, -430.000000)" fill="#353535">
            <path d="M844.991,461.983 C849.713,461.983 853.913,459.897 856.841,456.642 C857.832,451.732 845.067,440.641 845.067,440.641 C834.812,448.763 833.142,454.697 832.923,456.377 C835.856,459.782 840.146,461.983 844.991,461.983 L844.991,461.983 Z M834.903,433.678 C831.328,436.611 829,441.007 829,445.992 C829,449.588 830.231,452.872 832.235,455.544 C831.947,449.695 841.295,438.675 841.295,438.675 C838.459,435.169 836.569,434.029 835.41,433.74 C835.213,433.69 835.059,433.686 834.903,433.678 L834.903,433.678 Z M844.991,430 C841.792,430 838.827,430.963 836.327,432.581 C839.562,432.28 845.067,435.771 845.067,435.771 C853.176,430.491 854.646,433.621 854.646,433.621 C854.758,433.568 854.841,433.579 854.938,433.561 C852.2,431.367 848.772,430 844.991,430 L844.991,430 Z M855.187,433.766 C852.981,433.787 848.613,438.675 848.613,438.675 C857.041,448.702 857.592,454.161 857.508,455.835 C859.652,453.114 860.983,449.724 860.983,445.992 C860.982,441.057 858.699,436.7 855.187,433.766 L855.187,433.766 Z" id="Shape" sketch:type="MSShapeGroup"></path>
        </g>
    </g>
</svg>