<?xml version="1.0" encoding="UTF-8" standalone="no"?>
<svg width="33px" height="33px" viewBox="0 0 33 33" version="1.1" xmlns="http://www.w3.org/2000/svg" xmlns:xlink="http://www.w3.org/1999/xlink" xmlns:sketch="http://www.bohemiancoding.com/sketch/ns">
    <!-- Generator: Sketch 3.0.4 (8054) - http://www.bohemiancoding.com/sketch -->
    <title>Shape</title>
    <desc>Created with Sketch.</desc>
    <defs></defs>
    <g id="Page-1" stroke="none" stroke-width="1" fill="none" fill-rule="evenodd" sketch:type="MSPage">
        <g id="Desktop-HD" sketch:type="MSArtboardGroup" transform="translate(-344.000000, -74.000000)" fill="#353535">
            <path d="M360.02713,106.054261 C351.189739,106.054261 344,98.8645217 344,90.0271304 C344,81.1897391 351.189739,74 360.02713,74 C368.864522,74 376.054261,81.1897391 376.054261,90.0271304 C376.054261,98.8645217 368.864522,106.054261 360.02713,106.054261 L360.02713,106.054261 Z M373.543478,92.2210435 C373.07513,92.0732174 369.306261,90.9492174 365.016348,91.6358261 C366.806783,96.5561739 367.535478,100.563478 367.675826,101.396348 C370.74713,99.3196522 372.933391,96.030087 373.543478,92.2210435 L373.543478,92.2210435 Z M365.374435,102.649565 C365.170957,101.448522 364.376,97.2626087 362.454087,92.2683478 C362.424,92.2786087 362.393913,92.2883478 362.363826,92.2987826 C354.642435,94.9893913 351.870609,100.344 351.624348,100.847652 C353.945391,102.657565 356.862435,103.737565 360.02713,103.737565 C361.923478,103.737565 363.730957,103.349739 365.374435,102.649565 L365.374435,102.649565 Z M349.856696,99.2012174 C350.166783,98.6704348 353.923826,92.4495652 360.984174,90.1674783 C361.162609,90.1097391 361.342609,90.0556522 361.523652,90.0045217 C361.18,89.2267826 360.805739,88.4483478 360.413739,87.6813913 C353.577391,89.7274783 346.943478,89.641913 346.344348,89.6297391 C346.340174,89.7686957 346.337391,89.908 346.337391,90.048 C346.337391,93.564 347.670261,96.7742609 349.856696,99.2012174 L349.856696,99.2012174 Z M346.626783,87.2441739 C347.23913,87.2523478 352.87913,87.2768696 359.282609,85.5763478 C357.014261,81.544 354.568,78.154087 354.206957,77.6591304 C350.377043,79.4655652 347.514435,82.9961739 346.626783,87.2441739 L346.626783,87.2441739 Z M356.818957,76.7389565 C357.197391,77.2455652 359.683826,80.6314783 361.926957,84.7530435 C366.794783,82.9285217 368.855478,80.1587826 369.101739,79.808 C366.684348,77.6631304 363.505391,76.3584348 360.026957,76.3584348 C358.922609,76.3584348 357.848522,76.4907826 356.818957,76.7389565 L356.818957,76.7389565 Z M370.623652,81.3909565 C370.334957,81.7813913 368.041043,84.722087 362.979478,86.7886957 C363.298087,87.4408696 363.603478,88.104 363.887826,88.7714783 C363.988522,89.0081739 364.086783,89.2436522 364.182783,89.477913 C368.737739,88.9052174 373.263826,89.8231304 373.71513,89.9186087 C373.68487,86.6874783 372.530261,83.7205217 370.623652,81.3909565 L370.623652,81.3909565 Z" id="Shape" sketch:type="MSShapeGroup"></path>
        </g>
    </g>
</svg>