<?xml version="1.0" encoding="UTF-8" standalone="no"?>
<svg width="33px" height="32px" viewBox="0 0 33 32" version="1.1" xmlns="http://www.w3.org/2000/svg" xmlns:xlink="http://www.w3.org/1999/xlink" xmlns:sketch="http://www.bohemiancoding.com/sketch/ns">
    <!-- Generator: Sketch 3.0.4 (8054) - http://www.bohemiancoding.com/sketch -->
    <title>Fill 3</title>
    <desc>Created with Sketch.</desc>
    <defs></defs>
    <g id="Page-1" stroke="none" stroke-width="1" fill="none" fill-rule="evenodd" sketch:type="MSPage">
        <g id="Desktop-HD" sketch:type="MSArtboardGroup" transform="translate(-291.000000, -74.000000)" fill="#353535">
            <path d="M307.498481,74 C298.388256,74 291,81.3446728 291,90.4054189 C291,97.6534115 295.727309,103.801667 302.283956,105.970929 C303.109488,106.121991 303.410326,105.615428 303.410326,105.180367 C303.410326,104.791632 303.396145,103.759369 303.388041,102.390741 C298.79849,103.381712 297.830136,100.191266 297.830136,100.191266 C297.07956,98.2959319 295.997759,97.7913822 295.997759,97.7913822 C294.499647,96.7742261 296.111207,96.7943678 296.111207,96.7943678 C297.767335,96.9101826 298.638448,98.4852639 298.638448,98.4852639 C300.110224,100.991899 302.500721,100.267805 303.440713,99.8478503 C303.590626,98.7883966 304.017066,98.0653094 304.488075,97.6554257 C300.824335,97.2415136 296.972191,95.8336084 296.972191,89.5473822 C296.972191,87.7567847 297.615396,86.2914756 298.670862,85.1454126 C298.500691,84.7304934 297.934467,83.0617532 298.832929,80.803868 C298.832929,80.803868 300.217594,80.3627647 303.369809,82.4857004 C304.685595,82.1211355 306.097609,81.9398602 307.500506,81.9328106 C308.902391,81.9398602 310.313392,82.1211355 311.631204,82.4857004 C314.781393,80.3627647 316.164032,80.803868 316.164032,80.803868 C317.06452,83.0617532 316.498296,84.7304934 316.329138,85.1454126 C317.386629,86.2914756 318.024771,87.7567847 318.024771,89.5473822 C318.024771,95.8497218 314.166549,97.2364782 310.491666,97.6423336 C311.083213,98.1488974 311.610946,99.1499402 311.610946,100.68071 C311.610946,102.873134 311.590687,104.642583 311.590687,105.180367 C311.590687,105.619456 311.888486,106.130048 312.72516,105.969922 C319.276743,103.795625 324,97.6513973 324,90.4054189 C324,81.3446728 316.611744,74 307.498481,74" id="Fill-3" sketch:type="MSShapeGroup"></path>
        </g>
    </g>
</svg>