<?xml version="1.0" encoding="UTF-8" standalone="no"?>
<svg width="40px" height="32px" viewBox="0 0 40 32" version="1.1" xmlns="http://www.w3.org/2000/svg" xmlns:xlink="http://www.w3.org/1999/xlink" xmlns:sketch="http://www.bohemiancoding.com/sketch/ns">
    <!-- Generator: Sketch 3.0.4 (8054) - http://www.bohemiancoding.com/sketch -->
    <title>path5</title>
    <desc>Created with Sketch.</desc>
    <defs></defs>
    <g id="Page-1" stroke="none" stroke-width="1" fill="none" fill-rule="evenodd" sketch:type="MSPage">
        <g id="Desktop-HD" sketch:type="MSArtboardGroup" transform="translate(-231.000000, -74.000000)" fill="#353535">
            <path d="M271,77.7879849 C269.528396,78.4306028 267.946594,78.8647246 266.286791,79.0600307 C267.980995,78.0602682 269.282396,76.4771521 269.894997,74.5906431 C268.309195,75.5165715 266.552991,76.1887217 264.68359,76.5509839 C263.186786,74.9808603 261.053983,74 258.693579,74 C254.161573,74 250.486967,77.6168938 250.486967,82.0782113 C250.486967,82.7113792 250.559566,83.3280097 250.699566,83.9192429 C243.879154,83.5823803 237.832345,80.3661363 233.784738,75.4785742 C233.078337,76.6716706 232.673536,78.0592855 232.673536,79.5398296 C232.673536,82.3426219 234.122339,84.8152464 236.324341,86.2638934 C234.97914,86.2219587 233.713738,85.8585164 232.607336,85.2535032 C232.606403,85.2871681 232.606403,85.3210304 232.606403,85.3550925 C232.606403,89.2690815 235.43521,92.5339528 239.189414,93.2765874 C238.500813,93.4612611 237.775812,93.5598979 237.027409,93.5598979 C236.498609,93.5598979 235.98461,93.5091032 235.483409,93.4149939 C236.52781,96.6243456 239.558415,98.9599411 243.149621,99.0249108 C240.341017,101.19178 236.802611,102.483318 232.957604,102.483318 C232.295201,102.483318 231.642002,102.444926 231,102.370306 C234.631806,104.66259 238.945413,106 243.579821,106 C258.674445,106 266.929059,93.6904318 266.929059,83.014772 C266.929059,82.664522 266.921059,82.3162396 266.90526,81.9695344 C268.508461,80.8307753 269.899664,79.4081134 270.999867,77.7879849 L271,77.7879849 Z" id="path5" sketch:type="MSShapeGroup"></path>
        </g>
    </g>
</svg>