<?xml version="1.0" encoding="UTF-8" standalone="no"?>
<svg width="32px" height="32px" viewBox="0 0 32 32" version="1.1" xmlns="http://www.w3.org/2000/svg" xmlns:xlink="http://www.w3.org/1999/xlink" xmlns:sketch="http://www.bohemiancoding.com/sketch/ns">
    <!-- Generator: Sketch 3.0.4 (8054) - http://www.bohemiancoding.com/sketch -->
    <title>Shape</title>
    <desc>Created with Sketch.</desc>
    <defs></defs>
    <g id="Page-1" stroke="none" stroke-width="1" fill="none" fill-rule="evenodd" sketch:type="MSPage">
        <g id="Desktop-HD" sketch:type="MSArtboardGroup" transform="translate(-777.000000, -430.000000)" fill="#353535">
            <path d="M802,462 L784,462 C780.134,462 777,458.866 777,455 L777,437 C777,433.134 780.134,430 784,430 L802,430 C805.866,430 809,433.134 809,437 L809,455 C809,458.866 805.866,462 802,462 L802,462 Z M806.204,442.913 C806.084,441.473 803.924,439.163 801.014,440.183 C798.104,441.203 798.644,444.503 798.644,444.503 L796.784,447.683 C795.344,447.353 794.714,448.313 794.714,448.313 L784.664,445.433 C784.544,444.503 783.434,443.843 783.434,443.843 C780.764,442.433 778.064,445.493 779.894,447.563 C781.724,449.633 783.884,447.953 783.884,447.953 L793.784,450.833 C794.654,452.813 796.214,452.963 797.684,452.453 C799.154,451.943 799.184,449.933 799.184,449.933 L802.814,447.593 C806.414,446.783 806.324,444.353 806.204,442.913 L806.204,442.913 Z M802.469,446.273 C801.086,446.273 799.964,445.151 799.964,443.768 C799.964,442.385 801.086,441.263 802.469,441.263 C803.852,441.263 804.974,442.384 804.974,443.768 C804.974,445.152 803.852,446.273 802.469,446.273 L802.469,446.273 Z M802.454,442.072 C801.525,442.072 800.772,442.825 800.772,443.754 C800.772,444.683 801.525,445.436 802.454,445.436 C803.383,445.436 804.136,444.683 804.136,443.754 C804.136,442.825 803.383,442.072 802.454,442.072 L802.454,442.072 Z M795.044,451.133 L795.775,451.4 C795.775,451.4 796.795,451.7 797.215,450.5 C797.635,449.3 796.435,448.88 796.435,448.88 L795.914,448.643 C797.234,447.923 799.164,449.969 797.804,451.283 C796.404,452.634 795.044,451.133 795.044,451.133 L795.044,451.133 Z M781.17,445.647 C780.87,446.607 781.32,447.207 781.8,447.357 C782.28,447.507 782.624,447.592 782.624,447.592 C782.624,447.592 780.974,448.162 780.344,446.542 C779.714,444.922 782.264,443.452 783.464,445.102 L782.4,444.808 C782.4,444.808 781.47,444.688 781.17,445.647 L781.17,445.647 Z" id="Shape" sketch:type="MSShapeGroup"></path>
        </g>
    </g>
</svg>