<?xml version="1.0" encoding="UTF-8" standalone="no"?>
<svg width="40px" height="32px" viewBox="0 0 40 32" version="1.1" xmlns="http://www.w3.org/2000/svg" xmlns:xlink="http://www.w3.org/1999/xlink" xmlns:sketch="http://www.bohemiancoding.com/sketch/ns">
    <!-- Generator: Sketch 3.0.4 (8054) - http://www.bohemiancoding.com/sketch -->
    <title>path5</title>
    <desc>Created with Sketch.</desc>
    <defs></defs>
    <g id="Page-1" stroke="none" stroke-width="1" fill="none" fill-rule="evenodd" sketch:type="MSPage">
        <g id="Desktop-HD" sketch:type="MSArtboardGroup" transform="translate(-395.000000, -284.000000)" fill="#F6F6F6">
            <path d="M435,287.787985 C433.528396,288.430603 431.946594,288.864725 430.286791,289.060031 C431.980995,288.060268 433.282396,286.477152 433.894997,284.590643 C432.309195,285.516572 430.552991,286.188722 428.68359,286.550984 C427.186786,284.98086 425.053983,284 422.693579,284 C418.161573,284 414.486967,287.616894 414.486967,292.078211 C414.486967,292.711379 414.559566,293.32801 414.699566,293.919243 C407.879154,293.58238 401.832345,290.366136 397.784738,285.478574 C397.078337,286.671671 396.673536,288.059286 396.673536,289.53983 C396.673536,292.342622 398.122339,294.815246 400.324341,296.263893 C398.97914,296.221959 397.713738,295.858516 396.607336,295.253503 C396.606403,295.287168 396.606403,295.32103 396.606403,295.355093 C396.606403,299.269081 399.43521,302.533953 403.189414,303.276587 C402.500813,303.461261 401.775812,303.559898 401.027409,303.559898 C400.498609,303.559898 399.98461,303.509103 399.483409,303.414994 C400.52781,306.624346 403.558415,308.959941 407.149621,309.024911 C404.341017,311.19178 400.802611,312.483318 396.957604,312.483318 C396.295201,312.483318 395.642002,312.444926 395,312.370306 C398.631806,314.66259 402.945413,316 407.579821,316 C422.674445,316 430.929059,303.690432 430.929059,293.014772 C430.929059,292.664522 430.921059,292.31624 430.90526,291.969534 C432.508461,290.830775 433.899664,289.408113 434.999867,287.787985 L435,287.787985 Z" id="path5" sketch:type="MSShapeGroup"></path>
        </g>
    </g>
</svg>